<?xml version="1.0" standalone="no"?>
<!DOCTYPE svg PUBLIC "-//W3C//DTD SVG 20010904//EN"
 "http://www.w3.org/TR/2001/REC-SVG-20010904/DTD/svg10.dtd">
<svg version="1.0" xmlns="http://www.w3.org/2000/svg"
 width="373.000000pt" height="373.000000pt" viewBox="0 0 373.000000 373.000000"
 preserveAspectRatio="xMidYMid meet">
<metadata>
Created by potrace 1.14, written by Peter Selinger 2001-2017
</metadata>
<g transform="translate(0.000000,373.000000) scale(0.100000,-0.100000)"
fill="#000000" stroke="none">
<path d="M1719 3098 c-1 -13 -2 -20 -14 -85 -9 -49 -43 -149 -75 -219 -26 -55
-108 -198 -132 -229 -130 -167 -229 -262 -378 -362 -133 -89 -325 -173 -432
-188 -79 -11 -73 0 -73 -154 0 -81 4 -144 10 -149 6 -4 39 -14 75 -21 61 -12
186 -55 202 -70 11 -9 -79 -153 -136 -220 -71 -82 -132 -128 -239 -180 l-97
-48 85 -66 c47 -37 90 -67 95 -67 18 0 92 41 145 80 132 98 227 213 325 395
18 33 50 87 72 120 37 56 38 60 21 73 -18 14 -235 121 -283 139 -24 10 -24 10
15 23 56 18 177 76 262 126 196 115 373 283 520 491 46 65 141 250 162 316 7
20 16 37 20 37 4 0 13 -17 20 -37 18 -53 103 -227 113 -231 4 -2 8 -8 8 -13 0
-5 26 -46 59 -91 189 -266 438 -468 721 -583 36 -15 66 -28 68 -30 2 -2 -14
-9 -35 -15 -104 -34 -310 -149 -423 -238 -25 -19 -95 -86 -157 -148 -163 -165
-287 -360 -367 -579 -6 -16 -12 -9 -30 40 -32 83 -90 197 -143 278 l-43 68
-44 -58 c-44 -59 -54 -74 -134 -218 -24 -44 -57 -98 -72 -119 l-27 -40 43 -60
c24 -34 52 -72 62 -86 l19 -24 34 47 c19 26 50 75 71 108 l36 60 22 -58 c12
-32 26 -83 32 -113 6 -30 12 -65 14 -77 4 -23 7 -23 149 -23 79 0 146 3 149 8
2 4 7 28 11 52 3 25 19 84 35 132 108 323 356 615 666 784 99 54 251 110 322
120 27 3 55 10 62 14 9 6 13 47 14 150 1 78 -1 143 -4 145 -3 2 -29 6 -59 10
-107 14 -305 95 -427 176 -81 54 -185 142 -259 220 -69 72 -165 191 -165 204
0 3 -11 21 -24 38 -37 48 -104 192 -131 282 -22 70 -29 104 -34 163 -1 18
-301 18 -302 0z"/>
<path d="M1810 2532 c-30 -3 -38 -9 -55 -45 -27 -56 -138 -198 -218 -278 -83
-85 -216 -193 -284 -231 -29 -17 -54 -34 -55 -39 -1 -5 -2 -46 -3 -91 -2 -84
7 -107 42 -108 12 0 246 161 333 229 65 51 166 154 238 243 l63 78 58 -73 c83
-103 216 -236 307 -307 10 -8 31 -25 47 -37 l28 -21 -33 -23 c-84 -59 -281
-252 -353 -345 -27 -35 -52 -64 -55 -64 -3 0 -18 19 -34 42 -38 53 -146 168
-158 168 -16 0 -151 -114 -211 -179 -69 -75 -99 -119 -167 -241 -55 -100 -120
-196 -165 -243 -15 -15 -25 -32 -23 -38 5 -15 112 -138 121 -138 27 -3 157
166 228 297 42 76 88 148 119 185 47 58 79 91 83 87 2 -3 25 -36 51 -75 25
-38 52 -79 60 -90 11 -17 24 -20 99 -20 l87 0 45 73 c107 175 339 402 503 492
l42 24 0 91 0 90 -37 20 c-164 83 -465 387 -534 537 -10 24 -18 27 -73 30 -33
2 -77 2 -96 0z"/>
<path d="M1749 2057 c-39 -43 -139 -131 -222 -195 -261 -203 -332 -279 -431
-461 -83 -151 -156 -243 -255 -320 l-43 -35 72 -68 c39 -37 76 -68 80 -68 5 0
49 39 97 88 92 90 148 168 227 310 85 156 146 222 331 362 84 63 90 68 169
135 39 33 76 66 82 73 9 12 14 12 32 1 12 -8 22 -18 22 -24 -1 -14 -96 -113
-143 -149 -20 -16 -37 -31 -37 -35 1 -3 31 -39 69 -79 l68 -72 145 142 145
143 -1 50 c-2 47 -5 53 -55 100 -78 72 -106 101 -139 141 -26 31 -34 35 -84
37 l-56 3 -73 -79z"/>
</g>
</svg>
